<svg xmlns="http://www.w3.org/2000/svg" viewBox="0 0 60 75" x="0px" y="0px" fill="#ffffff">
    <title>Data Security - Solid073 - User Shield</title><path d="M44.08057,31.35449a6.7583,6.7583,0,1,0,6.7583,6.75879A6.76624,6.76624,0,0,0,44.08057,31.35449Zm3.41992,5.6748-4.06934,4.06934a.99964.99964,0,0,1-1.41406,0l-1.356-1.35645a.99989.99989,0,0,1,1.41406-1.41406l.64893.64941,3.3623-3.3623a.99989.99989,0,0,1,1.41406,1.41406Z"/><path d="M57.7417,29.34473,44.98145,23.2041a2.10147,2.10147,0,0,0-1.80273,0L30.41943,29.34473a.4316.4316,0,0,0-.2583.38281v7.53711a21.28966,21.28966,0,0,0,8.51807,16.709l4.917,3.8623A.78113.78113,0,0,0,44.07159,58h.00848l.00421.00085a.7817.7817,0,0,0,.48065-.16492l4.91553-3.86035A21.29343,21.29343,0,0,0,58,37.26465V29.72754A.4316.4316,0,0,0,57.7417,29.34473ZM44.08057,46.87109a8.7583,8.7583,0,1,1,8.7583-8.75781A8.7677,8.7677,0,0,1,44.08057,46.87109Z"/><path d="M28.16113,37.26465V29.72754A2.416,2.416,0,0,1,29.55225,27.542l7.5376-3.62732V19.59961a2.25993,2.25993,0,0,0-.7627-1.68066A.999.999,0,0,1,36,17.17969V10.84961a1.05436,1.05436,0,0,1,.0083-.12988,7.81364,7.81364,0,0,0-1.80225-5.60156C32.376,3.04883,29.27881,2,25,2c-4.2832,0-7.38281,1.0498-9.21191,3.12012a7.80483,7.80483,0,0,0-1.79639,5.60254,1.00766,1.00766,0,0,1,.0083.127v6.33008a.999.999,0,0,1-.32715.73926,2.25993,2.25993,0,0,0-.7627,1.68066v4.38086a2.28585,2.28585,0,0,0,1.05371,1.9209,1.00041,1.00041,0,0,1,.43066.61523,20.75927,20.75927,0,0,0,3.7334,7.7627.99962.99962,0,0,1,.23193.64063v4a4.99255,4.99255,0,0,1-2.59033,4.3877L6.04,48.627A7.78806,7.78806,0,0,0,2,55.46V58H40.56775l-3.12244-2.45215A23.27535,23.27535,0,0,1,28.16113,37.26465Z"/><text x="0" y="75" fill="none" font-size="5px" font-weight="bold" font-family="'Helvetica Neue', Helvetica, Arial-Unicode, Arial, Sans-serif">Created by Smashicons</text>
    <text x="0" y="80" fill="#ffffff" font-size="5px" font-weight="bold" font-family="'Helvetica Neue', Helvetica, Arial-Unicode, Arial, Sans-serif">from the Noun Project</text>
</svg>
